<svg width="97" height="97" viewBox="0 0 97 97" fill="none" xmlns="http://www.w3.org/2000/svg">
<path opacity="0.58" d="M48.25 0.998047C74.3465 0.998047 95.5018 22.1536 95.502 48.25C95.502 74.3465 74.3465 95.502 48.25 95.502C22.1536 95.5018 0.998047 74.3465 0.998047 48.25C0.998177 22.1537 22.1537 0.998178 48.25 0.998047Z" fill="#539AB7" stroke="url(#paint0_linear_111_23)" stroke-width="1.99656"/>
<g opacity="0.66">
<path d="M68.6685 45.8843L49.7012 26.9169C49.5544 26.77 49.38 26.6534 49.1882 26.5739C48.9963 26.4943 48.7906 26.4534 48.5829 26.4534C48.3752 26.4534 48.1695 26.4943 47.9776 26.5739C47.7857 26.6534 47.6114 26.77 47.4646 26.9169L28.4973 45.8843C28.276 46.1053 28.1252 46.3871 28.0641 46.6939C28.003 47.0006 28.0343 47.3186 28.1541 47.6076C28.2738 47.8966 28.4766 48.1435 28.7368 48.3172C28.9969 48.4909 29.3028 48.5834 29.6155 48.5832H37.5186V53.325C37.5186 53.7442 37.6851 54.1462 37.9816 54.4427C38.278 54.7391 38.68 54.9056 39.0992 54.9056H58.0666C58.4858 54.9056 58.8878 54.7391 59.1842 54.4427C59.4806 54.1462 59.6472 53.7442 59.6472 53.325V48.5832H67.5502C67.863 48.5834 68.1689 48.4909 68.429 48.3172C68.6892 48.1435 68.892 47.8966 69.0117 47.6076C69.1314 47.3186 69.1627 47.0006 69.1016 46.6939C69.0405 46.3871 68.8898 46.1053 68.6685 45.8843ZM58.0666 45.4219C57.6473 45.4219 57.2453 45.5885 56.9489 45.8849C56.6525 46.1813 56.4859 46.5834 56.4859 47.0026V51.7444H40.6798V47.0026C40.6798 46.5834 40.5133 46.1813 40.2169 45.8849C39.9205 45.5885 39.5184 45.4219 39.0992 45.4219H33.4307L48.5829 30.2698L63.735 45.4219H58.0666ZM59.6472 65.9699C59.6472 66.3891 59.4806 66.7911 59.1842 67.0876C58.8878 67.384 58.4858 67.5505 58.0666 67.5505H39.0992C38.68 67.5505 38.278 67.384 37.9816 67.0876C37.6851 66.7911 37.5186 66.3891 37.5186 65.9699C37.5186 65.5507 37.6851 65.1487 37.9816 64.8522C38.278 64.5558 38.68 64.3893 39.0992 64.3893H58.0666C58.4858 64.3893 58.8878 64.5558 59.1842 64.8522C59.4806 65.1487 59.6472 65.5507 59.6472 65.9699ZM59.6472 59.6474C59.6472 60.0667 59.4806 60.4687 59.1842 60.7651C58.8878 61.0615 58.4858 61.2281 58.0666 61.2281H39.0992C38.68 61.2281 38.278 61.0615 37.9816 60.7651C37.6851 60.4687 37.5186 60.0667 37.5186 59.6474C37.5186 59.2282 37.6851 58.8262 37.9816 58.5298C38.278 58.2334 38.68 58.0668 39.0992 58.0668H58.0666C58.4858 58.0668 58.8878 58.2334 59.1842 58.5298C59.4806 58.8262 59.6472 59.2282 59.6472 59.6474Z" fill="white"/>
</g>
<defs>
<linearGradient id="paint0_linear_111_23" x1="86.7769" y1="-3.74832e-06" x2="9.72355" y2="96.5005" gradientUnits="userSpaceOnUse">
<stop stop-color="white"/>
<stop offset="0.504808" stop-color="white" stop-opacity="0"/>
</linearGradient>
</defs>
</svg>
